# xmcd
#
# Track frame offsets: 
#        150
#        5939
#        33472
#        46936
#        70336
#        97540
#        117886
#        123358
#        143969
#        163048
#        179697
#        185256
#
# Disc length: 2557 seconds
#
# Revision: 0
# Processed by: cddbd v1.5.2PL0 Copyright (c) Steve Scherf et al.
# Submitted via: ExactAudioCopy v0.95b4
#
DISCID=a209fb0c
DTITLE=Alaska - 2000-10-21 - Dew Drop Inn - York PA - Disc 2
DYEAR=2000
DGENRE=Progressive Rock
TTITLE0=Band Discussion
TTITLE1=Mary Jane's Last Dance
TTITLE2=Mississippi Queen [cut]
TTITLE3=The Joker [cuts in]
TTITLE4=Rocking In The Free World
TTITLE5=Don't Tell Me You Love Me
TTITLE6=Band Discussion
TTITLE7=You've Got Another Thing Coming
TTITLE8=Beautiful Girls
TTITLE9=Dancing Days
TTITLE10=Band Discussion
TTITLE11=Superstition [cut]
EXTD=
EXTT0=
EXTT1=
EXTT2=
EXTT3=
EXTT4=
EXTT5=
EXTT6=
EXTT7=
EXTT8=
EXTT9=
EXTT10=
EXTT11=
PLAYORDER=
